<REAPER_PROJECT 0.1 "7.61/win64" 1770754181 0
  <NOTES 0 2
  >
  RIPPLE 0 0
  GROUPOVERRIDE 0 0 0 0
  AUTOXFADE 128
  ENVATTACH 2
  POOLEDENVATTACH 0
  TCPUIFLAGS 0
  MIXERUIFLAGS 11 48
  ENVFADESZ10 40
  PEAKGAIN 1
  FEEDBACK 0
  PANLAW 1
  PROJOFFS 0 0 0
  MAXPROJLEN 0 600
  GRID 3198 8 1 8 1 0 0 0
  TIMEMODE 1 5 -1 30 0 0 -1 0
  VIDEO_CONFIG 0 0 256
  PANMODE 3
  CURSOR 0
  ZOOM 10.32633108408774 0 0
  VZOOMEX 8.24688911 0
  USE_REC_CFG 0
  RECMODE 1
  SMPTESYNC 0 30 100 40 1000 300 0 0 1 0 0
  LOOP 1
  LOOPGRAN 0 4
  RECORD_PATH "" ""
  <RECORD_CFG
    ZXZhdxgAAQ==
  >
  <APPLYFX_CFG
  >
  RENDER_FILE ""
  RENDER_PATTERN $project
  RENDER_FMT 0 2 0
  RENDER_1X 0
  RENDER_RANGE 1 0 0 16 1000
  RENDER_RESAMPLE 10 0 0
  RENDER_ADDTOPROJ 0
  RENDER_STEMS 0
  RENDER_DITHER 0
  RENDER_TRIM 0.000001 0.000001 0 0
  TIMELOCKMODE 0
  TEMPOENVLOCKMODE 0
  ITEMMIX 1
  DEFPITCHMODE 720896 1
  TAKELANE 1
  SAMPLERATE 48000 1 0
  <RENDER_CFG
    ZXZhdyEAAQ==
  >
  LOCK 1
  <METRONOME 6 2
    VOL 0.25 0.125
    BEATLEN 4
    FREQ 800 1600 1
    SAMPLES "" "" "" ""
    SPLIGNORE 0 0
    SPLDEF 2 660 "" 0 ""
    SPLDEF 3 440 "" 0 ""
    PATTERN 0 169
    PATTERNSTR ABBB
    MULT 1
  >
  GLOBAL_AUTO -1
  TEMPO 120 4 4 0
  PLAYRATE 1 0 0.25 4
  SELECTION 0 616.16
  SELECTION2 0 616.16
  MASTERAUTOMODE 0
  MASTERTRACKHEIGHT 131 0
  MASTERPEAKCOL 16576
  MASTERMUTESOLO 0
  MASTERTRACKVIEW 1 0.6667 0.5 0.5 0 0 0 0 0 0 0 0 0 0 1
  MASTERHWOUT 0 0 1 0 0 0 0 -1
  MASTER_NCH 2 2
  MASTER_VOLUME 1 0 -1 -1 1
  MASTER_PANMODE 3
  MASTER_FX 1
  MASTER_SEL 0
  <MASTERPLAYSPEEDENV
    EGUID {2F79AF2A-3DB5-4D79-A639-90BCEF814FD2}
    ACT 0 -1
    VIS 0 1 1
    LANEHEIGHT 0 0
    ARM 0
    DEFSHAPE 0 -1 -1
  >
  <TEMPOENVEX
    EGUID {033C58C3-DFB8-49C4-8E37-578A2BD42507}
    ACT 0 -1
    VIS 1 0 1
    LANEHEIGHT 0 0
    ARM 0
    DEFSHAPE 1 -1 -1
  >
  MARKER 1 0 "LADDER(GATED): Distance" 0 0 1 R {79535A93-BD04-44DD-85A1-9B9FCA9802CD} 0
  MARKER 2 61.800375 "LADDER(GATED): Spread" 0 0 1 R {070A94C1-344F-414D-B029-3B58DFE84FE1} 0
  MARKER 3 123.60075 "LADDER(GATED): Air Absorb" 0 0 1 R {363CE799-5D6A-4A72-8A5D-50E7C4989050} 0
  MARKER 4 185.401125 "LADDER(GATED): Width" 0 0 1 R {4ED60B89-2519-4410-BC3A-50FC78456718} 0
  MARKER 5 247.2015 "LADDER(GATED): Quality" 0 0 1 R {85DC7ABE-A72F-486A-8448-396588465051} 0
  MARKER 6 309.001875 "LADDER(GATED): Output (dB)" 0 0 1 R {8E79B27B-3E7F-42EB-B1F5-96267957EC0B} 0
  MARKER 7 370.80225 "LADDER(GATED): Monitor" 0 0 1 R {A4146157-9C70-441D-8A2E-81EEF0BDD186} 0
  MARKER 8 432.602625 "LADDER(GATED): Room Size" 0 0 1 R {04B1060A-8CD2-4F40-864C-495A676B0961} 0
  MARKER 9 494.403 "RAND2(GATED): [Distance] + [Spread]" 0 0 1 R {A08C3A9D-E9F4-4A49-BE68-25EC92F174F8} 0
  MARKER 10 498.60302083333335 "RAND2(GATED): [Distance] + [Air Absorb]" 0 0 1 R {4168FD22-5938-4E16-9452-84437E75286C} 0
  MARKER 11 502.80304166666667 "RAND2(GATED): [Distance] + [Width]" 0 0 1 R {D502BF9C-F154-40F4-AECB-513D2F78E77D} 0
  MARKER 12 507.0030625 "RAND2(GATED): [Distance] + [Quality]" 0 0 1 R {2CF65EEB-4F38-4736-9017-B7F7EC1B3953} 0
  MARKER 13 511.20308333333332 "RAND2(GATED): [Distance] + [Output (dB)]" 0 0 1 R {AC41DF00-1442-4056-8AAA-0DE11E226CF9} 0
  MARKER 14 515.40310416666671 "RAND2(GATED): [Distance] + [Monitor]" 0 0 1 R {E19708F5-C936-40BA-A0E6-0BF55D5C9389} 0
  MARKER 15 519.603125 "RAND2(GATED): [Distance] + [Room Size]" 0 0 1 R {5B748750-D8AF-4909-97F9-797256929D4D} 0
  MARKER 16 523.80314583333336 "RAND2(GATED): [Spread] + [Air Absorb]" 0 0 1 R {43A4FFE6-552F-4D24-915C-52176E76E261} 0
  MARKER 17 528.00316666666663 "RAND2(GATED): [Spread] + [Width]" 0 0 1 R {0B6A9666-FC5A-410A-A81B-21521A1BC63D} 0
  MARKER 18 532.2031875 "RAND2(GATED): [Spread] + [Quality]" 0 0 1 R {AF2EE09F-905B-47E1-9010-4D795BE4C229} 0
  MARKER 19 536.40320833333328 "RAND2(GATED): [Spread] + [Output (dB)]" 0 0 1 R {82A265AD-5D5A-4CC3-8E0F-C6FA4A8D238B} 0
  MARKER 20 540.60322916666667 "RAND2(GATED): [Spread] + [Monitor]" 0 0 1 R {AF96BCBD-919E-4152-961F-4A2299E55FA2} 0
  MARKER 21 544.80325 "RAND2(GATED): [Spread] + [Room Size]" 0 0 1 R {6F3453CC-F0A3-4F9B-BA50-74F6DCCC343A} 0
  MARKER 22 549.00327083333332 "RAND2(GATED): [Air Absorb] + [Width]" 0 0 1 R {CAC9D83D-55D2-45B8-BE2B-61AB0FC046B8} 0
  MARKER 23 553.2032916666667 "RAND2(GATED): [Air Absorb] + [Quality]" 0 0 1 R {7B1E10BC-2F9A-4CE1-B1FA-A69C672D8C43} 0
  MARKER 24 557.4033125 "RAND2(GATED): [Air Absorb] + [Output (dB)]" 0 0 1 R {251A466A-F64E-4CB2-909D-6E8A427EFBD8} 0
  MARKER 25 561.60333333333335 "RAND2(GATED): [Air Absorb] + [Monitor]" 0 0 1 R {D1C20F97-4DA6-4256-8B53-CBCCE1C9FC5C} 0
  MARKER 26 565.80335416666662 "RAND2(GATED): [Air Absorb] + [Room Size]" 0 0 1 R {B4831766-5477-467A-A3EC-6A6868BE6E9A} 0
  MARKER 27 570.003375 "RAND2(GATED): [Width] + [Quality]" 0 0 1 R {3C3E142A-5686-4258-8149-070F3036471B} 0
  MARKER 28 574.20339583333339 "RAND2(GATED): [Width] + [Output (dB)]" 0 0 1 R {37F584A7-EF5B-4F3B-AF22-A2C8D537096F} 0
  MARKER 29 578.40341666666666 "RAND2(GATED): [Width] + [Monitor]" 0 0 1 R {28896F51-1E66-4B3E-8AB7-11B911E96E2D} 0
  MARKER 30 582.6034375 "RAND2(GATED): [Width] + [Room Size]" 0 0 1 R {B04B50A2-8377-4429-B457-7C3090A36BB9} 0
  MARKER 31 586.80345833333331 "RAND2(GATED): [Quality] + [Output (dB)]" 0 0 1 R {AB736D7A-E0A2-4E42-B723-7166B0AD2AF7} 0
  MARKER 32 591.00347916666669 "RAND2(GATED): [Quality] + [Monitor]" 0 0 1 R {A0A775BC-C58B-4F3B-AE63-EA45A9618F19} 0
  MARKER 33 595.2035 "RAND2(GATED): [Quality] + [Room Size]" 0 0 1 R {D85A7241-7316-493C-A8B2-4D9BE2B66AFB} 0
  MARKER 34 599.40352083333335 "RAND2(GATED): [Output (dB)] + [Monitor]" 0 0 1 R {8E183D77-BE5A-42CE-B9DE-1E8492A32375} 0
  MARKER 35 603.60354166666662 "RAND2(GATED): [Output (dB)] + [Room Size]" 0 0 1 R {F7014ACF-4EF0-44E5-B417-6EC8184C0599} 0
  MARKER 36 607.8035625 "RAND2(GATED): [Monitor] + [Room Size]" 0 0 1 R {0D4DA993-952A-4BF7-91AF-DA98FAE85094} 0
  <PROJBAY
  >
  <TRACK {A564D125-FA05-43D5-A4CD-7675AF041AA7}
    NAME "Null Test"
    PEAKCOL 16576
    BEAT -1
    AUTOMODE 0
    PANLAWFLAGS 3
    VOLPAN 0.22495074449391 0 -1 -1 1
    MUTESOLO 0 0 0
    IPHASE 0
    PLAYOFFS 0 1
    ISBUS 1 1
    BUSCOMP 0 0 0 0 0
    SHOWINMIX 1 0.6667 0.5 1 0.5 0 0 0 0
    FIXEDLANES 9 0 0 0 0
    LANEREC -1 -1 -1 0
    SEL 0
    REC 0 0 1 0 0 0 0 0
    VU 64
    TRACKHEIGHT 0 0 0 0 0 0 0
    INQ 0 0 0 0.5 100 0 0 100
    NCHAN 2
    FX 1
    TRACKID {A564D125-FA05-43D5-A4CD-7675AF041AA7}
    PERF 0
    MIDIOUT -1
    MAINSEND 1 0
  >
  <TRACK {4104A870-3F0C-4144-AA35-AC1669894F84}
    NAME DummyJSFX
    PEAKCOL 16576
    BEAT -1
    AUTOMODE 1
    PANLAWFLAGS 3
    VOLPAN 1 0 -1 -1 1
    MUTESOLO 0 0 0
    IPHASE 0
    PLAYOFFS 0 1
    ISBUS 0 0
    BUSCOMP 0 0 0 0 0
    SHOWINMIX 1 0.6667 0.5 1 0.5 0 0 0 0
    FIXEDLANES 9 0 0 0 0
    LANEREC -1 -1 -1 0
    SEL 0
    REC 0 0 1 0 0 0 0 0
    VU 64
    TRACKHEIGHT 0 0 0 0 0 0 0
    INQ 0 0 0 0.5 100 0 0 100
    NCHAN 2
    FX 1
    TRACKID {4104A870-3F0C-4144-AA35-AC1669894F84}
    PERF 0
    MIDIOUT -1
    MAINSEND 1 0
    <FXCHAIN
      WNDRECT 21 49 981 624
      SHOW 0
      LASTSEL 0
      DOCKED 0
      BYPASS 0 0 0
      <JS "Deterministic for Null Test" ""
        -120 -12 - - - - - - - - - - - - - - - - - - - - - - - - - - - - - - - - - - - - - - - - - - - - - - - - - - - - - - - - - - - - - -
      >
      FLOATPOS 21 49 756 201
      FXID {01981F45-D89C-4AD0-B2D2-D10842E08BD3}
      WAK 0 0
      BYPASS 0 0 0
      <JS utility/volume __NULLTEST_GATE__
        0 0 - - - - - - - - - - - - - - - - - - - - - - - - - - - - - - - - - - - - - - - - - - - - - - - - - - - - - - - - - - - - - -
      >
      FLOATPOS 0 0 0 0
      FXID {DF8F5182-F011-438A-AB7E-DBCACF1E08E4}
      <PROGRAMENV 0 0 "Adjustment (dB) / __NULLTEST_GATE__"
        PARAMBASE 0
        LFO 0
        LFOWT 1 1
        AUDIOCTL 0
        AUDIOCTLWT 1 1
        PLINK 0.5 -100 -1 0 ""
        MIDIPLINK 0 0 176 0
      >
      WAK 0 0
      BYPASS 0 0 0
      <JS DummyJSFX.jsfx ""
        0 0 0 0 0 100 -12 0 0 - - - - - - - - - - - - - - - - - - - - - - - - - - - - - - - - - - - - - - - - - - - - - - - - - - - - - - -
      >
      FLOATPOS 1024 169 756 417
      FXID {536DD51C-C4F9-4C47-947E-05B6EB7FCC0C}
      <PROGRAMENV 0 0 "Distance / Designed Distance Topology"
        PARAMBASE 0
        LFO 0
        LFOWT 1 1
        AUDIOCTL 0
        AUDIOCTLWT 1 1
        PLINK 1 -100 -1 0 ""
        MIDIPLINK 0 1 176 20
      >
      <PROGRAMENV 1 0 "Spread / Designed Distance Topology"
        PARAMBASE 0
        LFO 0
        LFOWT 1 1
        AUDIOCTL 0
        AUDIOCTLWT 1 1
        PLINK 1 -100 -1 0 ""
        MIDIPLINK 0 1 176 21
      >
      <PROGRAMENV 2 0 "Air Absorb / Designed Distance Topology"
        PARAMBASE 0
        LFO 0
        LFOWT 1 1
        AUDIOCTL 0
        AUDIOCTLWT 1 1
        PLINK 1 -100 -1 0 ""
        MIDIPLINK 0 1 176 22
      >
      <PROGRAMENV 3 0 "Width / Designed Distance Topology"
        PARAMBASE 0
        LFO 0
        LFOWT 1 1
        AUDIOCTL 0
        AUDIOCTLWT 1 1
        PLINK 1 -100 -1 0 ""
        MIDIPLINK 0 1 176 23
      >
      <PROGRAMENV 4 0 "Quality / Designed Distance Topology"
        PARAMBASE 0
        LFO 0
        LFOWT 1 1
        AUDIOCTL 0
        AUDIOCTLWT 1 1
        PLINK 1 -100 -1 0 ""
        MIDIPLINK 0 1 176 24
      >
      <PROGRAMENV 6 0 "Output (dB) / Designed Distance Topology"
        PARAMBASE -12
        LFO 0
        LFOWT 1 1
        AUDIOCTL 0
        AUDIOCTLWT 1 1
        PLINK 1 -100 -1 0 ""
        MIDIPLINK 0 1 176 25
        MODWND 0 -1871 167 -1355 572
      >
      <PROGRAMENV 7 0 "Monitor / Designed Distance Topology"
        PARAMBASE 0
        LFO 0
        LFOWT 1 1
        AUDIOCTL 0
        AUDIOCTLWT 1 1
        PLINK 1 -100 -1 0 ""
        MIDIPLINK 0 1 176 26
      >
      <PROGRAMENV 8 0 "Room Size / Designed Distance Topology"
        PARAMBASE 0
        LFO 0
        LFOWT 1 1
        AUDIOCTL 0
        AUDIOCTLWT 1 1
        PLINK 1 -100 -1 0 ""
        MIDIPLINK 0 1 176 27
      >
      WAK 0 0
    >
    <ITEM
      POSITION 0
      SNAPOFFS 0
      LENGTH 616.16
      LOOP 1
      ALLTAKES 0
      FADEIN 1 0 0 1 0 0 0
      FADEOUT 1 0 0 1 0 0 0
      MUTE 0 0
      SEL 0
      IGUID {8392D53B-032C-4C03-A28D-EBD41C2C541E}
      IID 2224
      NAME ""
      VOLPAN 1 0 1 -1
      SOFFS 0 0
      PLAYRATE 1 1 0 -1 0 0.0025
      CHANMODE 0
      GUID {F2386FC9-FBBD-4A38-B9FD-6D8A851BF68E}
      <SOURCE MIDI
        HASDATA 1 960 QN
        CCINTERP 32
        POOLEDEVTS {0764A519-165E-4F0B-A747-4941D326C2CA}
        E 0 b0 00 7f
        E 0 b0 00 00
        E 0 b1 14 2a
        E 0 b1 15 00
        E 0 b1 16 00
        E 0 b1 17 00
        E 0 b1 18 00
        E 0 b1 19 40
        E 0 b1 1a 00
        E 0 b1 1b 1e
        E 1152 b0 00 7f
        E 0 b1 14 00
        E 5760 b0 00 00
        E 0 b0 00 00
        E 1152 b0 00 7f
        E 0 b1 14 08
        E 5760 b0 00 00
        E 0 b0 00 00
        E 1152 b0 00 7f
        E 0 b1 14 10
        E 5760 b0 00 00
        E 0 b0 00 00
        E 1152 b0 00 7f
        E 0 b1 14 18
        E 5760 b0 00 00
        E 0 b0 00 00
        E 1152 b0 00 7f
        E 0 b1 14 20
        E 5760 b0 00 00
        E 0 b0 00 00
        E 1152 b0 00 7f
        E 0 b1 14 28
        E 5760 b0 00 00
        E 0 b0 00 00
        E 1152 b0 00 7f
        E 0 b1 14 30
        E 5760 b0 00 00
        E 0 b0 00 00
        E 1152 b0 00 7f
        E 0 b1 14 38
        E 5760 b0 00 00
        E 0 b0 00 00
        E 1152 b0 00 7f
        E 0 b1 14 40
        E 5760 b0 00 00
        E 0 b0 00 00
        E 1152 b0 00 7f
        E 0 b1 14 48
        E 5760 b0 00 00
        E 0 b0 00 00
        E 1152 b0 00 7f
        E 0 b1 14 50
        E 5760 b0 00 00
        E 0 b0 00 00
        E 1152 b0 00 7f
        E 0 b1 14 58
        E 5760 b0 00 00
        E 0 b0 00 00
        E 1152 b0 00 7f
        E 0 b1 14 60
        E 5760 b0 00 00
        E 0 b0 00 00
        E 1152 b0 00 7f
        E 0 b1 14 68
        E 5760 b0 00 00
        E 0 b0 00 00
        E 1152 b0 00 7f
        E 0 b1 14 70
        E 5760 b0 00 00
        E 0 b0 00 00
        E 1152 b0 00 7f
        E 0 b1 14 78
        E 5760 b0 00 00
        E 0 b0 00 00
        E 1152 b0 00 7f
        E 0 b1 14 7f
        E 5760 b0 00 00
        E 0 b0 00 00
        E 1152 b0 00 00
        E 0 b1 14 2a
        E 1152 b0 00 7f
        E 0 b1 15 00
        E 5760 b0 00 00
        E 0 b0 00 00
        E 1152 b0 00 7f
        E 0 b1 15 08
        E 5760 b0 00 00
        E 0 b0 00 00
        E 1152 b0 00 7f
        E 0 b1 15 10
        E 5760 b0 00 00
        E 0 b0 00 00
        E 1152 b0 00 7f
        E 0 b1 15 18
        E 5760 b0 00 00
        E 0 b0 00 00
        E 1152 b0 00 7f
        E 0 b1 15 20
        E 5760 b0 00 00
        E 0 b0 00 00
        E 1152 b0 00 7f
        E 0 b1 15 28
        E 5760 b0 00 00
        E 0 b0 00 00
        E 1152 b1 15 30
        E 1 b0 00 7f
        E 5760 b0 00 00
        E 0 b0 00 00
        E 1152 b0 00 7f
        E 0 b1 15 38
        E 5760 b0 00 00
        E 0 b0 00 00
        E 1152 b0 00 7f
        E 0 b1 15 40
        E 5760 b0 00 00
        E 0 b0 00 00
        E 1152 b0 00 7f
        E 0 b1 15 48
        E 5760 b0 00 00
        E 0 b0 00 00
        E 1152 b0 00 7f
        E 0 b1 15 50
        E 5760 b0 00 00
        E 0 b0 00 00
        E 1152 b0 00 7f
        E 0 b1 15 58
        E 5760 b0 00 00
        E 0 b0 00 00
        E 1152 b0 00 7f
        E 0 b1 15 60
        E 5760 b0 00 00
        E 0 b0 00 00
        E 1152 b0 00 7f
        E 0 b1 15 68
        E 5760 b0 00 00
        E 0 b0 00 00
        E 1152 b0 00 7f
        E 0 b1 15 70
        E 5760 b0 00 00
        E 0 b0 00 00
        E 1152 b0 00 7f
        E 0 b1 15 78
        E 5760 b0 00 00
        E 0 b0 00 00
        E 1152 b0 00 7f
        E 0 b1 15 7f
        E 5760 b0 00 00
        E 0 b0 00 00
        E 1152 b0 00 00
        E 0 b1 15 00
        E 1152 b0 00 7f
        E 0 b1 16 00
        E 5760 b0 00 00
        E 0 b0 00 00
        E 1152 b0 00 7f
        E 0 b1 16 08
        E 5760 b0 00 00
        E 0 b0 00 00
        E 1152 b0 00 7f
        E 0 b1 16 10
        E 5760 b0 00 00
        E 0 b0 00 00
        E 1152 b0 00 7f
        E 0 b1 16 18
        E 5760 b0 00 00
        E 0 b0 00 00
        E 1152 b0 00 7f
        E 0 b1 16 20
        E 5760 b0 00 00
        E 0 b0 00 00
        E 1152 b0 00 7f
        E 0 b1 16 28
        E 5760 b0 00 00
        E 0 b0 00 00
        E 1152 b0 00 7f
        E 0 b1 16 30
        E 5760 b0 00 00
        E 0 b0 00 00
        E 1152 b0 00 7f
        E 0 b1 16 38
        E 5760 b0 00 00
        E 0 b0 00 00
        E 1152 b0 00 7f
        E 0 b1 16 40
        E 5760 b0 00 00
        E 0 b0 00 00
        E 1152 b0 00 7f
        E 0 b1 16 48
        E 5760 b0 00 00
        E 0 b0 00 00
        E 1152 b0 00 7f
        E 0 b1 16 50
        E 5760 b0 00 00
        E 0 b0 00 00
        E 1152 b0 00 7f
        E 0 b1 16 58
        E 5760 b0 00 00
        E 0 b0 00 00
        E 1152 b0 00 7f
        E 0 b1 16 60
        E 5760 b0 00 00
        E 0 b0 00 00
        E 1152 b1 16 68
        E 1 b0 00 7f
        E 5760 b0 00 00
        E 0 b0 00 00
        E 1152 b0 00 7f
        E 0 b1 16 70
        E 5760 b0 00 00
        E 0 b0 00 00
        E 1152 b0 00 7f
        E 0 b1 16 78
        E 5760 b0 00 00
        E 0 b0 00 00
        E 1152 b0 00 7f
        E 0 b1 16 7f
        E 5760 b0 00 00
        E 0 b0 00 00
        E 1152 b0 00 00
        E 0 b1 16 00
        E 1152 b0 00 7f
        E 0 b1 17 00
        E 5760 b0 00 00
        E 0 b0 00 00
        E 1152 b0 00 7f
        E 0 b1 17 08
        E 5760 b0 00 00
        E 0 b0 00 00
        E 1152 b0 00 7f
        E 0 b1 17 10
        E 5760 b0 00 00
        E 0 b0 00 00
        E 1152 b0 00 7f
        E 0 b1 17 18
        E 5760 b0 00 00
        E 0 b0 00 00
        E 1152 b0 00 7f
        E 0 b1 17 20
        E 5760 b0 00 00
        E 0 b0 00 00
        E 1152 b0 00 7f
        E 0 b1 17 28
        E 5760 b0 00 00
        E 0 b0 00 00
        E 1152 b0 00 7f
        E 0 b1 17 30
        E 5760 b0 00 00
        E 0 b0 00 00
        E 1152 b0 00 7f
        E 0 b1 17 38
        E 5760 b0 00 00
        E 0 b0 00 00
        E 1152 b0 00 7f
        E 0 b1 17 40
        E 5760 b0 00 00
        E 0 b0 00 00
        E 1152 b0 00 7f
        E 0 b1 17 48
        E 5760 b0 00 00
        E 0 b0 00 00
        E 1152 b0 00 7f
        E 0 b1 17 50
        E 5760 b0 00 00
        E 0 b0 00 00
        E 1152 b0 00 7f
        E 0 b1 17 58
        E 5760 b0 00 00
        E 0 b0 00 00
        E 1152 b0 00 7f
        E 0 b1 17 60
        E 5760 b0 00 00
        E 0 b0 00 00
        E 1152 b0 00 7f
        E 0 b1 17 68
        E 5760 b0 00 00
        E 0 b0 00 00
        E 1152 b0 00 7f
        E 0 b1 17 70
        E 5760 b0 00 00
        E 0 b0 00 00
        E 1152 b0 00 7f
        E 0 b1 17 78
        E 5760 b0 00 00
        E 0 b0 00 00
        E 1152 b0 00 7f
        E 0 b1 17 7f
        E 5760 b0 00 00
        E 0 b0 00 00
        E 1152 b0 00 00
        E 0 b1 17 00
        E 1152 b0 00 7f
        E 0 b1 18 00
        E 5760 b0 00 00
        E 0 b0 00 00
        E 1152 b0 00 7f
        E 0 b1 18 08
        E 5760 b0 00 00
        E 0 b0 00 00
        E 1152 b1 18 10
        E 1 b0 00 7f
        E 5760 b0 00 00
        E 0 b0 00 00
        E 1152 b0 00 7f
        E 0 b1 18 18
        E 5760 b0 00 00
        E 0 b0 00 00
        E 1152 b0 00 7f
        E 0 b1 18 20
        E 5760 b0 00 00
        E 0 b0 00 00
        E 1152 b0 00 7f
        E 0 b1 18 28
        E 5760 b0 00 00
        E 0 b0 00 00
        E 1152 b0 00 7f
        E 0 b1 18 30
        E 5760 b0 00 00
        E 0 b0 00 00
        E 1152 b0 00 7f
        E 0 b1 18 38
        E 5760 b0 00 00
        E 0 b0 00 00
        E 1152 b0 00 7f
        E 0 b1 18 40
        E 5760 b0 00 00
        E 0 b0 00 00
        E 1152 b0 00 7f
        E 0 b1 18 48
        E 5760 b0 00 00
        E 0 b0 00 00
        E 1152 b0 00 7f
        E 0 b1 18 50
        E 5760 b0 00 00
        E 0 b0 00 00
        E 1152 b0 00 7f
        E 0 b1 18 58
        E 5760 b0 00 00
        E 0 b0 00 00
        E 1152 b0 00 7f
        E 0 b1 18 60
        E 5760 b0 00 00
        E 0 b0 00 00
        E 1152 b0 00 7f
        E 0 b1 18 68
        E 5760 b0 00 00
        E 0 b0 00 00
        E 1152 b0 00 7f
        E 0 b1 18 70
        E 5760 b0 00 00
        E 0 b0 00 00
        E 1152 b0 00 7f
        E 0 b1 18 78
        E 5760 b0 00 00
        E 0 b0 00 00
        E 1152 b0 00 7f
        E 0 b1 18 7f
        E 5760 b0 00 00
        E 0 b0 00 00
        E 1152 b0 00 00
        E 0 b1 18 00
        E 1152 b0 00 7f
        E 0 b1 19 00
        E 5760 b0 00 00
        E 0 b0 00 00
        E 1152 b0 00 7f
        E 0 b1 19 08
        E 5760 b0 00 00
        E 0 b0 00 00
        E 1152 b0 00 7f
        E 0 b1 19 10
        E 5760 b0 00 00
        E 0 b0 00 00
        E 1152 b0 00 7f
        E 0 b1 19 18
        E 5760 b0 00 00
        E 0 b0 00 00
        E 1152 b0 00 7f
        E 0 b1 19 20
        E 5760 b0 00 00
        E 0 b0 00 00
        E 1152 b0 00 7f
        E 0 b1 19 28
        E 5760 b0 00 00
        E 0 b0 00 00
        E 1152 b0 00 7f
        E 0 b1 19 30
        E 5760 b0 00 00
        E 0 b0 00 00
        E 1152 b0 00 7f
        E 0 b1 19 38
        E 5760 b0 00 00
        E 0 b0 00 00
        E 1152 b0 00 7f
        E 0 b1 19 40
        E 5760 b0 00 00
        E 0 b0 00 00
        E 1152 b1 19 48
        E 1 b0 00 7f
        E 5760 b0 00 00
        E 0 b0 00 00
        E 1152 b0 00 7f
        E 0 b1 19 50
        E 5760 b0 00 00
        E 0 b0 00 00
        E 1152 b0 00 7f
        E 0 b1 19 58
        E 5760 b0 00 00
        E 0 b0 00 00
        E 1152 b0 00 7f
        E 0 b1 19 60
        E 5760 b0 00 00
        E 0 b0 00 00
        E 1152 b0 00 7f
        E 0 b1 19 68
        E 5760 b0 00 00
        E 0 b0 00 00
        E 1152 b0 00 7f
        E 0 b1 19 70
        E 5760 b0 00 00
        E 0 b0 00 00
        E 1152 b0 00 7f
        E 0 b1 19 78
        E 5760 b0 00 00
        E 0 b0 00 00
        E 1152 b0 00 7f
        E 0 b1 19 7f
        E 5760 b0 00 00
        E 0 b0 00 00
        E 1152 b0 00 00
        E 0 b1 19 40
        E 1152 b0 00 7f
        E 0 b1 1a 00
        E 5760 b0 00 00
        E 0 b0 00 00
        E 1152 b0 00 7f
        E 0 b1 1a 08
        E 5760 b0 00 00
        E 0 b0 00 00
        E 1152 b0 00 7f
        E 0 b1 1a 10
        E 5760 b0 00 00
        E 0 b0 00 00
        E 1152 b0 00 7f
        E 0 b1 1a 18
        E 5760 b0 00 00
        E 0 b0 00 00
        E 1152 b0 00 7f
        E 0 b1 1a 20
        E 5760 b0 00 00
        E 0 b0 00 00
        E 1152 b0 00 7f
        E 0 b1 1a 28
        E 5760 b0 00 00
        E 0 b0 00 00
        E 1152 b0 00 7f
        E 0 b1 1a 30
        E 5760 b0 00 00
        E 0 b0 00 00
        E 1152 b0 00 7f
        E 0 b1 1a 38
        E 5760 b0 00 00
        E 0 b0 00 00
        E 1152 b0 00 7f
        E 0 b1 1a 40
        E 5760 b0 00 00
        E 0 b0 00 00
        E 1152 b0 00 7f
        E 0 b1 1a 48
        E 5760 b0 00 00
        E 0 b0 00 00
        E 1152 b0 00 7f
        E 0 b1 1a 50
        E 5760 b0 00 00
        E 0 b0 00 00
        E 1152 b0 00 7f
        E 0 b1 1a 58
        E 5760 b0 00 00
        E 0 b0 00 00
        E 1152 b0 00 7f
        E 0 b1 1a 60
        E 5760 b0 00 00
        E 0 b0 00 00
        E 1152 b0 00 7f
        E 0 b1 1a 68
        E 5760 b0 00 00
        E 0 b0 00 00
        E 1152 b0 00 7f
        E 0 b1 1a 70
        E 5760 b0 00 00
        E 0 b0 00 00
        E 1152 b0 00 7f
        E 0 b1 1a 78
        E 5760 b0 00 00
        E 0 b0 00 00
        E 1152 b1 1a 7f
        E 1 b0 00 7f
        E 5760 b0 00 00
        E 0 b0 00 00
        E 1152 b0 00 00
        E 0 b1 1a 00
        E 1152 b0 00 7f
        E 0 b1 1b 00
        E 5760 b0 00 00
        E 0 b0 00 00
        E 1152 b0 00 7f
        E 0 b1 1b 08
        E 5760 b0 00 00
        E 0 b0 00 00
        E 1152 b0 00 7f
        E 0 b1 1b 10
        E 5760 b0 00 00
        E 0 b0 00 00
        E 1152 b0 00 7f
        E 0 b1 1b 18
        E 5760 b0 00 00
        E 0 b0 00 00
        E 1152 b0 00 7f
        E 0 b1 1b 20
        E 5760 b0 00 00
        E 0 b0 00 00
        E 1152 b0 00 7f
        E 0 b1 1b 28
        E 5760 b0 00 00
        E 0 b0 00 00
        E 1152 b0 00 7f
        E 0 b1 1b 30
        E 5760 b0 00 00
        E 0 b0 00 00
        E 1152 b0 00 7f
        E 0 b1 1b 38
        E 5760 b0 00 00
        E 0 b0 00 00
        E 1152 b0 00 7f
        E 0 b1 1b 40
        E 5760 b0 00 00
        E 0 b0 00 00
        E 1152 b0 00 7f
        E 0 b1 1b 48
        E 5760 b0 00 00
        E 0 b0 00 00
        E 1152 b0 00 7f
        E 0 b1 1b 50
        E 5760 b0 00 00
        E 0 b0 00 00
        E 1152 b0 00 7f
        E 0 b1 1b 58
        E 5760 b0 00 00
        E 0 b0 00 00
        E 1152 b0 00 7f
        E 0 b1 1b 60
        E 5760 b0 00 00
        E 0 b0 00 00
        E 1152 b0 00 7f
        E 0 b1 1b 68
        E 5760 b0 00 00
        E 0 b0 00 00
        E 1152 b0 00 7f
        E 0 b1 1b 70
        E 5760 b0 00 00
        E 0 b0 00 00
        E 1152 b0 00 7f
        E 0 b1 1b 78
        E 5760 b0 00 00
        E 0 b0 00 00
        E 1152 b0 00 7f
        E 0 b1 1b 7f
        E 5760 b0 00 00
        E 0 b0 00 00
        E 1152 b0 00 00
        E 0 b1 1b 1e
        E 1152 b0 00 7f
        E 0 b1 14 23
        E 0 b1 15 47
        E 5760 b0 00 00
        E 1152 b0 00 00
        E 0 b1 14 2a
        E 0 b1 15 00
        E 1152 b0 00 7f
        E 0 b1 14 5d
        E 0 b1 16 7f
        E 5760 b0 00 00
        E 1152 b0 00 00
        E 0 b1 14 2a
        E 0 b1 16 00
        E 1152 b0 00 7f
        E 0 b1 14 34
        E 0 b1 17 52
        E 5760 b0 00 00
        E 1152 b0 00 00
        E 0 b1 14 2a
        E 0 b1 17 00
        E 1152 b0 00 7f
        E 0 b1 14 31
        E 0 b1 18 0e
        E 5760 b0 00 00
        E 1152 b0 00 00
        E 0 b1 14 2a
        E 0 b1 18 00
        E 1152 b0 00 7f
        E 0 b1 14 44
        E 0 b1 19 37
        E 5760 b0 00 00
        E 1152 b0 00 00
        E 0 b1 14 2a
        E 0 b1 19 40
        E 1152 b1 14 25
        E 0 b1 1a 7c
        E 1 b0 00 7f
        E 5760 b0 00 00
        E 1152 b0 00 00
        E 0 b1 14 2a
        E 0 b1 1a 00
        E 1152 b0 00 7f
        E 0 b1 14 31
        E 0 b1 1b 00
        E 5760 b0 00 00
        E 1152 b0 00 00
        E 0 b1 14 2a
        E 0 b1 1b 1e
        E 1152 b0 00 7f
        E 0 b1 15 4a
        E 0 b1 16 2f
        E 5760 b0 00 00
        E 1152 b0 00 00
        E 0 b1 15 00
        E 0 b1 16 00
        E 1152 b0 00 7f
        E 0 b1 15 3b
        E 0 b1 17 1c
        E 5760 b0 00 00
        E 1152 b0 00 00
        E 0 b1 15 00
        E 0 b1 17 00
        E 1152 b0 00 7f
        E 0 b1 15 44
        E 0 b1 18 6e
        E 5760 b0 00 00
        E 1152 b0 00 00
        E 0 b1 15 00
        E 0 b1 18 00
        E 1152 b0 00 7f
        E 0 b1 15 17
        E 0 b1 19 27
        E 5760 b0 00 00
        E 1152 b0 00 00
        E 0 b1 15 00
        E 0 b1 19 40
        E 1152 b0 00 7f
        E 0 b1 15 5c
        E 0 b1 1a 58
        E 5760 b0 00 00
        E 1152 b0 00 00
        E 0 b1 15 00
        E 0 b1 1a 00
        E 1152 b0 00 7f
        E 0 b1 15 7b
        E 0 b1 1b 1f
        E 5760 b0 00 00
        E 1152 b0 00 00
        E 0 b1 15 00
        E 0 b1 1b 1e
        E 1152 b0 00 7f
        E 0 b1 16 1a
        E 0 b1 17 1c
        E 5760 b0 00 00
        E 1152 b0 00 00
        E 0 b1 16 00
        E 0 b1 17 00
        E 1152 b0 00 7f
        E 0 b1 16 1b
        E 0 b1 18 45
        E 5760 b0 00 00
        E 1152 b0 00 00
        E 0 b1 16 00
        E 0 b1 18 00
        E 1152 b0 00 7f
        E 0 b1 16 79
        E 0 b1 19 29
        E 5760 b0 00 00
        E 1152 b0 00 00
        E 0 b1 16 00
        E 0 b1 19 40
        E 1152 b0 00 7f
        E 0 b1 16 46
        E 0 b1 1a 3e
        E 5760 b0 00 00
        E 1152 b0 00 00
        E 0 b1 16 00
        E 0 b1 1a 00
        E 1152 b0 00 7f
        E 0 b1 16 18
        E 0 b1 1b 6e
        E 5760 b0 00 00
        E 1152 b0 00 00
        E 0 b1 16 00
        E 0 b1 1b 1e
        E 1152 b0 00 7f
        E 0 b1 17 7c
        E 0 b1 18 67
        E 5760 b0 00 00
        E 1152 b0 00 00
        E 0 b1 17 00
        E 0 b1 18 00
        E 1152 b0 00 7f
        E 0 b1 17 25
        E 0 b1 19 37
        E 5760 b0 00 00
        E 1152 b0 00 00
        E 0 b1 17 00
        E 0 b1 19 40
        E 1152 b0 00 7f
        E 0 b1 17 51
        E 0 b1 1a 5e
        E 5760 b0 00 00
        E 1152 b0 00 00
        E 0 b1 17 00
        E 0 b1 1a 00
        E 1152 b0 00 7f
        E 0 b1 17 06
        E 0 b1 1b 3a
        E 5760 b0 00 00
        E 1152 b0 00 00
        E 0 b1 17 00
        E 0 b1 1b 1e
        E 1152 b0 00 7f
        E 0 b1 18 39
        E 0 b1 19 05
        E 5760 b0 00 00
        E 1152 b0 00 00
        E 0 b1 18 00
        E 0 b1 19 40
        E 1152 b0 00 7f
        E 0 b1 18 7c
        E 0 b1 1a 3d
        E 5760 b0 00 00
        E 1152 b0 00 00
        E 0 b1 18 00
        E 0 b1 1a 00
        E 1152 b0 00 7f
        E 0 b1 18 7b
        E 0 b1 1b 79
        E 5760 b0 00 00
        E 1152 b0 00 00
        E 0 b1 18 00
        E 0 b1 1b 1e
        E 1152 b0 00 7f
        E 0 b1 19 3c
        E 0 b1 1a 14
        E 5760 b0 00 00
        E 1152 b0 00 00
        E 0 b1 19 40
        E 0 b1 1a 00
        E 1152 b0 00 7f
        E 0 b1 19 44
        E 0 b1 1b 4b
        E 5760 b0 00 00
        E 1152 b0 00 00
        E 0 b1 19 40
        E 0 b1 1b 1e
        E 1152 b0 00 7f
        E 0 b1 1a 71
        E 0 b1 1b 13
        E 5760 b0 00 00
        E 1152 b1 1a 00
        E 0 b1 1b 1e
        E 7981 b0 7b 00
        CCINTERP 32
        CHASE_CC_TAKEOFFS 1
        GUID {EE9042BF-0989-4A2F-9437-DFC87BAF3FCA}
        IGNTEMPO 0 120 4 4
        SRCCOLOR 7946
        EVTFILTER 0 -1 -1 -1 -1 0 0 0 0 -1 -1 -1 -1 0 -1 0 -1 -1
      >
    >
  >
  <TRACK {936CDBAD-9FB7-45C2-B95C-FC09A5CDC2DD}
    NAME "Converted JSFX"
    PEAKCOL 16576
    BEAT -1
    AUTOMODE 1
    PANLAWFLAGS 3
    VOLPAN 1 0 -1 -1 1
    MUTESOLO 0 0 0
    IPHASE 1
    PLAYOFFS 0 1
    ISBUS 2 -1
    BUSCOMP 0 0 0 0 0
    SHOWINMIX 1 0.6667 0.5 1 0.5 0 0 0 0
    FIXEDLANES 9 0 0 0 0
    LANEREC -1 -1 -1 0
    SEL 0
    REC 0 0 1 0 0 0 0 0
    VU 64
    TRACKHEIGHT 101 0 0 0 0 0 0
    INQ 0 0 0 0.5 100 0 0 100
    NCHAN 2
    FX 1
    TRACKID {936CDBAD-9FB7-45C2-B95C-FC09A5CDC2DD}
    PERF 0
    MIDIOUT -1
    MAINSEND 1 0
    <FXCHAIN
      WNDRECT 21 49 981 624
      SHOW 0
      LASTSEL 0
      DOCKED 0
      BYPASS 0 0 0
      <JS "Deterministic for Null Test" ""
        -120 -12 - - - - - - - - - - - - - - - - - - - - - - - - - - - - - - - - - - - - - - - - - - - - - - - - - - - - - - - - - - - - - -
      >
      FLOATPOS 0 0 0 0
      FXID {27E5D3B9-787D-40BB-96D1-521700EA382F}
      WAK 0 0
      BYPASS 0 0 0
      <JS utility/volume __NULLTEST_GATE__
        0 0 - - - - - - - - - - - - - - - - - - - - - - - - - - - - - - - - - - - - - - - - - - - - - - - - - - - - - - - - - - - - - -
      >
      FLOATPOS 53 81 756 201
      FXID {F005D3D0-F206-44A5-B5E0-5C929A57F4AA}
      <PROGRAMENV 0 0 "Adjustment (dB) / __NULLTEST_GATE__"
        PARAMBASE 0
        LFO 0
        LFOWT 1 1
        AUDIOCTL 0
        AUDIOCTLWT 1 1
        PLINK 0.5 -100 -1 0 ""
        MIDIPLINK 0 0 176 0
      >
      WAK 0 0
      BYPASS 0 0 0
      <CLAP "CLAP: DummyJSFX (ZorakAudio)" com.zorakaudio.experimental.dummyjsfx ""
        CFG 4 642 570 ""
        <STATE
          VkMyIWUBAAA8P3htbCB2ZXJzaW9uPSIxLjAiIGVuY29kaW5nPSJVVEYtOCI/PiA8UEFSQU1TPjxQQVJBTSBpZD0ic2xpZGVyMSIgdmFsdWU9IjAuMCIvPjxQQVJBTSBp
          ZD0ic2xpZGVyMiIgdmFsdWU9IjAuMCIvPjxQQVJBTSBpZD0ic2xpZGVyMyIgdmFsdWU9IjAuMCIvPjxQQVJBTSBpZD0ic2xpZGVyNCIgdmFsdWU9IjAuMCIvPjxQQVJB
          TSBpZD0ic2xpZGVyNSIgdmFsdWU9IjAuMCIvPjxQQVJBTSBpZD0ic2xpZGVyNiIgdmFsdWU9IjEwMC4wIi8+PFBBUkFNIGlkPSJzbGlkZXI3IiB2YWx1ZT0iLTEyLjAi
          Lz48UEFSQU0gaWQ9InNsaWRlcjgiIHZhbHVlPSIwLjAiLz48UEFSQU0gaWQ9InNsaWRlcjkiIHZhbHVlPSIwLjAiLz48L1BBUkFNUz4A
        >
      >
      FLOATPOS 21 49 664 665
      FXID {3EA9AF4F-639F-44B7-96F6-B7474A56E348}
      <PROGRAMENV 0:-2119261328 0 "Distance / DummyJSFX"
        PARAMBASE 0
        LFO 0
        LFOWT 1 1
        AUDIOCTL 0
        AUDIOCTLWT 1 1
        PLINK 1 -100 -1 0 ""
        MIDIPLINK 0 1 176 20
      >
      <PROGRAMENV 1:-2119261327 0 "Spread / DummyJSFX"
        PARAMBASE 0
        LFO 0
        LFOWT 1 1
        AUDIOCTL 0
        AUDIOCTLWT 1 1
        PLINK 1 -100 -1 0 ""
        MIDIPLINK 0 1 176 21
      >
      <PROGRAMENV 2:-2119261326 0 "Air Absorb / DummyJSFX"
        PARAMBASE 0
        LFO 0
        LFOWT 1 1
        AUDIOCTL 0
        AUDIOCTLWT 1 1
        PLINK 1 -100 -1 0 ""
        MIDIPLINK 0 1 176 22
      >
      <PROGRAMENV 3:-2119261325 0 "Width / DummyJSFX"
        PARAMBASE 0
        LFO 0
        LFOWT 1 1
        AUDIOCTL 0
        AUDIOCTLWT 1 1
        PLINK 1 -100 -1 0 ""
        MIDIPLINK 0 1 176 23
      >
      <PROGRAMENV 4:-2119261324 0 "Quality / DummyJSFX"
        PARAMBASE 0
        LFO 0
        LFOWT 1 1
        AUDIOCTL 0
        AUDIOCTLWT 1 1
        PLINK 1 -100 -1 0 ""
        MIDIPLINK 0 1 176 24
      >
      <PROGRAMENV 6:-2119261322 0 "Output (dB) / DummyJSFX"
        PARAMBASE 0
        LFO 0
        LFOWT 1 1
        AUDIOCTL 0
        AUDIOCTLWT 1 1
        PLINK 1 -100 -1 0 ""
        MIDIPLINK 0 1 176 25
      >
      <PROGRAMENV 7:-2119261321 0 "Monitor / DummyJSFX"
        PARAMBASE 0
        LFO 0
        LFOWT 1 1
        AUDIOCTL 0
        AUDIOCTLWT 1 1
        PLINK 1 -100 -1 0 ""
        MIDIPLINK 0 1 176 26
      >
      <PROGRAMENV 8:-2119261320 0 "Room Size / DummyJSFX"
        PARAMBASE 0
        LFO 0
        LFOWT 1 1
        AUDIOCTL 0
        AUDIOCTLWT 1 1
        PLINK 1 -100 -1 0 ""
        MIDIPLINK 0 1 176 27
      >
      WAK 0 0
    >
    <ITEM
      POSITION 0
      SNAPOFFS 0
      LENGTH 616.16
      LOOP 1
      ALLTAKES 0
      FADEIN 1 0 0 1 0 0 0
      FADEOUT 1 0 0 1 0 0 0
      MUTE 0 0
      SEL 0
      IGUID {1E1AFAD4-5E42-4D63-A2A4-37714679D308}
      IID 2225
      NAME ""
      VOLPAN 1 0 1 -1
      SOFFS 0 0
      PLAYRATE 1 1 0 -1 0 0.0025
      CHANMODE 0
      GUID {5C22107A-49C1-4B43-877D-F946E6CB02B5}
      <SOURCE MIDI
        HASDATA 1 960 QN
        CCINTERP 32
        POOLEDEVTS {612FF89E-F3BE-47AF-8048-6098E7CED7DB}
        E 0 b0 00 7f
        E 0 b0 00 00
        E 0 b1 14 2a
        E 0 b1 15 00
        E 0 b1 16 00
        E 0 b1 17 00
        E 0 b1 18 00
        E 0 b1 19 40
        E 0 b1 1a 00
        E 0 b1 1b 1e
        E 1152 b0 00 7f
        E 0 b1 14 00
        E 5760 b0 00 00
        E 0 b0 00 00
        E 1152 b0 00 7f
        E 0 b1 14 08
        E 5760 b0 00 00
        E 0 b0 00 00
        E 1152 b0 00 7f
        E 0 b1 14 10
        E 5760 b0 00 00
        E 0 b0 00 00
        E 1152 b0 00 7f
        E 0 b1 14 18
        E 5760 b0 00 00
        E 0 b0 00 00
        E 1152 b0 00 7f
        E 0 b1 14 20
        E 5760 b0 00 00
        E 0 b0 00 00
        E 1152 b0 00 7f
        E 0 b1 14 28
        E 5760 b0 00 00
        E 0 b0 00 00
        E 1152 b0 00 7f
        E 0 b1 14 30
        E 5760 b0 00 00
        E 0 b0 00 00
        E 1152 b0 00 7f
        E 0 b1 14 38
        E 5760 b0 00 00
        E 0 b0 00 00
        E 1152 b0 00 7f
        E 0 b1 14 40
        E 5760 b0 00 00
        E 0 b0 00 00
        E 1152 b0 00 7f
        E 0 b1 14 48
        E 5760 b0 00 00
        E 0 b0 00 00
        E 1152 b0 00 7f
        E 0 b1 14 50
        E 5760 b0 00 00
        E 0 b0 00 00
        E 1152 b0 00 7f
        E 0 b1 14 58
        E 5760 b0 00 00
        E 0 b0 00 00
        E 1152 b0 00 7f
        E 0 b1 14 60
        E 5760 b0 00 00
        E 0 b0 00 00
        E 1152 b0 00 7f
        E 0 b1 14 68
        E 5760 b0 00 00
        E 0 b0 00 00
        E 1152 b0 00 7f
        E 0 b1 14 70
        E 5760 b0 00 00
        E 0 b0 00 00
        E 1152 b0 00 7f
        E 0 b1 14 78
        E 5760 b0 00 00
        E 0 b0 00 00
        E 1152 b0 00 7f
        E 0 b1 14 7f
        E 5760 b0 00 00
        E 0 b0 00 00
        E 1152 b0 00 00
        E 0 b1 14 2a
        E 1152 b0 00 7f
        E 0 b1 15 00
        E 5760 b0 00 00
        E 0 b0 00 00
        E 1152 b0 00 7f
        E 0 b1 15 08
        E 5760 b0 00 00
        E 0 b0 00 00
        E 1152 b0 00 7f
        E 0 b1 15 10
        E 5760 b0 00 00
        E 0 b0 00 00
        E 1152 b0 00 7f
        E 0 b1 15 18
        E 5760 b0 00 00
        E 0 b0 00 00
        E 1152 b0 00 7f
        E 0 b1 15 20
        E 5760 b0 00 00
        E 0 b0 00 00
        E 1152 b0 00 7f
        E 0 b1 15 28
        E 5760 b0 00 00
        E 0 b0 00 00
        E 1152 b1 15 30
        E 1 b0 00 7f
        E 5760 b0 00 00
        E 0 b0 00 00
        E 1152 b0 00 7f
        E 0 b1 15 38
        E 5760 b0 00 00
        E 0 b0 00 00
        E 1152 b0 00 7f
        E 0 b1 15 40
        E 5760 b0 00 00
        E 0 b0 00 00
        E 1152 b0 00 7f
        E 0 b1 15 48
        E 5760 b0 00 00
        E 0 b0 00 00
        E 1152 b0 00 7f
        E 0 b1 15 50
        E 5760 b0 00 00
        E 0 b0 00 00
        E 1152 b0 00 7f
        E 0 b1 15 58
        E 5760 b0 00 00
        E 0 b0 00 00
        E 1152 b0 00 7f
        E 0 b1 15 60
        E 5760 b0 00 00
        E 0 b0 00 00
        E 1152 b0 00 7f
        E 0 b1 15 68
        E 5760 b0 00 00
        E 0 b0 00 00
        E 1152 b0 00 7f
        E 0 b1 15 70
        E 5760 b0 00 00
        E 0 b0 00 00
        E 1152 b0 00 7f
        E 0 b1 15 78
        E 5760 b0 00 00
        E 0 b0 00 00
        E 1152 b0 00 7f
        E 0 b1 15 7f
        E 5760 b0 00 00
        E 0 b0 00 00
        E 1152 b0 00 00
        E 0 b1 15 00
        E 1152 b0 00 7f
        E 0 b1 16 00
        E 5760 b0 00 00
        E 0 b0 00 00
        E 1152 b0 00 7f
        E 0 b1 16 08
        E 5760 b0 00 00
        E 0 b0 00 00
        E 1152 b0 00 7f
        E 0 b1 16 10
        E 5760 b0 00 00
        E 0 b0 00 00
        E 1152 b0 00 7f
        E 0 b1 16 18
        E 5760 b0 00 00
        E 0 b0 00 00
        E 1152 b0 00 7f
        E 0 b1 16 20
        E 5760 b0 00 00
        E 0 b0 00 00
        E 1152 b0 00 7f
        E 0 b1 16 28
        E 5760 b0 00 00
        E 0 b0 00 00
        E 1152 b0 00 7f
        E 0 b1 16 30
        E 5760 b0 00 00
        E 0 b0 00 00
        E 1152 b0 00 7f
        E 0 b1 16 38
        E 5760 b0 00 00
        E 0 b0 00 00
        E 1152 b0 00 7f
        E 0 b1 16 40
        E 5760 b0 00 00
        E 0 b0 00 00
        E 1152 b0 00 7f
        E 0 b1 16 48
        E 5760 b0 00 00
        E 0 b0 00 00
        E 1152 b0 00 7f
        E 0 b1 16 50
        E 5760 b0 00 00
        E 0 b0 00 00
        E 1152 b0 00 7f
        E 0 b1 16 58
        E 5760 b0 00 00
        E 0 b0 00 00
        E 1152 b0 00 7f
        E 0 b1 16 60
        E 5760 b0 00 00
        E 0 b0 00 00
        E 1152 b1 16 68
        E 1 b0 00 7f
        E 5760 b0 00 00
        E 0 b0 00 00
        E 1152 b0 00 7f
        E 0 b1 16 70
        E 5760 b0 00 00
        E 0 b0 00 00
        E 1152 b0 00 7f
        E 0 b1 16 78
        E 5760 b0 00 00
        E 0 b0 00 00
        E 1152 b0 00 7f
        E 0 b1 16 7f
        E 5760 b0 00 00
        E 0 b0 00 00
        E 1152 b0 00 00
        E 0 b1 16 00
        E 1152 b0 00 7f
        E 0 b1 17 00
        E 5760 b0 00 00
        E 0 b0 00 00
        E 1152 b0 00 7f
        E 0 b1 17 08
        E 5760 b0 00 00
        E 0 b0 00 00
        E 1152 b0 00 7f
        E 0 b1 17 10
        E 5760 b0 00 00
        E 0 b0 00 00
        E 1152 b0 00 7f
        E 0 b1 17 18
        E 5760 b0 00 00
        E 0 b0 00 00
        E 1152 b0 00 7f
        E 0 b1 17 20
        E 5760 b0 00 00
        E 0 b0 00 00
        E 1152 b0 00 7f
        E 0 b1 17 28
        E 5760 b0 00 00
        E 0 b0 00 00
        E 1152 b0 00 7f
        E 0 b1 17 30
        E 5760 b0 00 00
        E 0 b0 00 00
        E 1152 b0 00 7f
        E 0 b1 17 38
        E 5760 b0 00 00
        E 0 b0 00 00
        E 1152 b0 00 7f
        E 0 b1 17 40
        E 5760 b0 00 00
        E 0 b0 00 00
        E 1152 b0 00 7f
        E 0 b1 17 48
        E 5760 b0 00 00
        E 0 b0 00 00
        E 1152 b0 00 7f
        E 0 b1 17 50
        E 5760 b0 00 00
        E 0 b0 00 00
        E 1152 b0 00 7f
        E 0 b1 17 58
        E 5760 b0 00 00
        E 0 b0 00 00
        E 1152 b0 00 7f
        E 0 b1 17 60
        E 5760 b0 00 00
        E 0 b0 00 00
        E 1152 b0 00 7f
        E 0 b1 17 68
        E 5760 b0 00 00
        E 0 b0 00 00
        E 1152 b0 00 7f
        E 0 b1 17 70
        E 5760 b0 00 00
        E 0 b0 00 00
        E 1152 b0 00 7f
        E 0 b1 17 78
        E 5760 b0 00 00
        E 0 b0 00 00
        E 1152 b0 00 7f
        E 0 b1 17 7f
        E 5760 b0 00 00
        E 0 b0 00 00
        E 1152 b0 00 00
        E 0 b1 17 00
        E 1152 b0 00 7f
        E 0 b1 18 00
        E 5760 b0 00 00
        E 0 b0 00 00
        E 1152 b0 00 7f
        E 0 b1 18 08
        E 5760 b0 00 00
        E 0 b0 00 00
        E 1152 b1 18 10
        E 1 b0 00 7f
        E 5760 b0 00 00
        E 0 b0 00 00
        E 1152 b0 00 7f
        E 0 b1 18 18
        E 5760 b0 00 00
        E 0 b0 00 00
        E 1152 b0 00 7f
        E 0 b1 18 20
        E 5760 b0 00 00
        E 0 b0 00 00
        E 1152 b0 00 7f
        E 0 b1 18 28
        E 5760 b0 00 00
        E 0 b0 00 00
        E 1152 b0 00 7f
        E 0 b1 18 30
        E 5760 b0 00 00
        E 0 b0 00 00
        E 1152 b0 00 7f
        E 0 b1 18 38
        E 5760 b0 00 00
        E 0 b0 00 00
        E 1152 b0 00 7f
        E 0 b1 18 40
        E 5760 b0 00 00
        E 0 b0 00 00
        E 1152 b0 00 7f
        E 0 b1 18 48
        E 5760 b0 00 00
        E 0 b0 00 00
        E 1152 b0 00 7f
        E 0 b1 18 50
        E 5760 b0 00 00
        E 0 b0 00 00
        E 1152 b0 00 7f
        E 0 b1 18 58
        E 5760 b0 00 00
        E 0 b0 00 00
        E 1152 b0 00 7f
        E 0 b1 18 60
        E 5760 b0 00 00
        E 0 b0 00 00
        E 1152 b0 00 7f
        E 0 b1 18 68
        E 5760 b0 00 00
        E 0 b0 00 00
        E 1152 b0 00 7f
        E 0 b1 18 70
        E 5760 b0 00 00
        E 0 b0 00 00
        E 1152 b0 00 7f
        E 0 b1 18 78
        E 5760 b0 00 00
        E 0 b0 00 00
        E 1152 b0 00 7f
        E 0 b1 18 7f
        E 5760 b0 00 00
        E 0 b0 00 00
        E 1152 b0 00 00
        E 0 b1 18 00
        E 1152 b0 00 7f
        E 0 b1 19 00
        E 5760 b0 00 00
        E 0 b0 00 00
        E 1152 b0 00 7f
        E 0 b1 19 08
        E 5760 b0 00 00
        E 0 b0 00 00
        E 1152 b0 00 7f
        E 0 b1 19 10
        E 5760 b0 00 00
        E 0 b0 00 00
        E 1152 b0 00 7f
        E 0 b1 19 18
        E 5760 b0 00 00
        E 0 b0 00 00
        E 1152 b0 00 7f
        E 0 b1 19 20
        E 5760 b0 00 00
        E 0 b0 00 00
        E 1152 b0 00 7f
        E 0 b1 19 28
        E 5760 b0 00 00
        E 0 b0 00 00
        E 1152 b0 00 7f
        E 0 b1 19 30
        E 5760 b0 00 00
        E 0 b0 00 00
        E 1152 b0 00 7f
        E 0 b1 19 38
        E 5760 b0 00 00
        E 0 b0 00 00
        E 1152 b0 00 7f
        E 0 b1 19 40
        E 5760 b0 00 00
        E 0 b0 00 00
        E 1152 b1 19 48
        E 1 b0 00 7f
        E 5760 b0 00 00
        E 0 b0 00 00
        E 1152 b0 00 7f
        E 0 b1 19 50
        E 5760 b0 00 00
        E 0 b0 00 00
        E 1152 b0 00 7f
        E 0 b1 19 58
        E 5760 b0 00 00
        E 0 b0 00 00
        E 1152 b0 00 7f
        E 0 b1 19 60
        E 5760 b0 00 00
        E 0 b0 00 00
        E 1152 b0 00 7f
        E 0 b1 19 68
        E 5760 b0 00 00
        E 0 b0 00 00
        E 1152 b0 00 7f
        E 0 b1 19 70
        E 5760 b0 00 00
        E 0 b0 00 00
        E 1152 b0 00 7f
        E 0 b1 19 78
        E 5760 b0 00 00
        E 0 b0 00 00
        E 1152 b0 00 7f
        E 0 b1 19 7f
        E 5760 b0 00 00
        E 0 b0 00 00
        E 1152 b0 00 00
        E 0 b1 19 40
        E 1152 b0 00 7f
        E 0 b1 1a 00
        E 5760 b0 00 00
        E 0 b0 00 00
        E 1152 b0 00 7f
        E 0 b1 1a 08
        E 5760 b0 00 00
        E 0 b0 00 00
        E 1152 b0 00 7f
        E 0 b1 1a 10
        E 5760 b0 00 00
        E 0 b0 00 00
        E 1152 b0 00 7f
        E 0 b1 1a 18
        E 5760 b0 00 00
        E 0 b0 00 00
        E 1152 b0 00 7f
        E 0 b1 1a 20
        E 5760 b0 00 00
        E 0 b0 00 00
        E 1152 b0 00 7f
        E 0 b1 1a 28
        E 5760 b0 00 00
        E 0 b0 00 00
        E 1152 b0 00 7f
        E 0 b1 1a 30
        E 5760 b0 00 00
        E 0 b0 00 00
        E 1152 b0 00 7f
        E 0 b1 1a 38
        E 5760 b0 00 00
        E 0 b0 00 00
        E 1152 b0 00 7f
        E 0 b1 1a 40
        E 5760 b0 00 00
        E 0 b0 00 00
        E 1152 b0 00 7f
        E 0 b1 1a 48
        E 5760 b0 00 00
        E 0 b0 00 00
        E 1152 b0 00 7f
        E 0 b1 1a 50
        E 5760 b0 00 00
        E 0 b0 00 00
        E 1152 b0 00 7f
        E 0 b1 1a 58
        E 5760 b0 00 00
        E 0 b0 00 00
        E 1152 b0 00 7f
        E 0 b1 1a 60
        E 5760 b0 00 00
        E 0 b0 00 00
        E 1152 b0 00 7f
        E 0 b1 1a 68
        E 5760 b0 00 00
        E 0 b0 00 00
        E 1152 b0 00 7f
        E 0 b1 1a 70
        E 5760 b0 00 00
        E 0 b0 00 00
        E 1152 b0 00 7f
        E 0 b1 1a 78
        E 5760 b0 00 00
        E 0 b0 00 00
        E 1152 b1 1a 7f
        E 1 b0 00 7f
        E 5760 b0 00 00
        E 0 b0 00 00
        E 1152 b0 00 00
        E 0 b1 1a 00
        E 1152 b0 00 7f
        E 0 b1 1b 00
        E 5760 b0 00 00
        E 0 b0 00 00
        E 1152 b0 00 7f
        E 0 b1 1b 08
        E 5760 b0 00 00
        E 0 b0 00 00
        E 1152 b0 00 7f
        E 0 b1 1b 10
        E 5760 b0 00 00
        E 0 b0 00 00
        E 1152 b0 00 7f
        E 0 b1 1b 18
        E 5760 b0 00 00
        E 0 b0 00 00
        E 1152 b0 00 7f
        E 0 b1 1b 20
        E 5760 b0 00 00
        E 0 b0 00 00
        E 1152 b0 00 7f
        E 0 b1 1b 28
        E 5760 b0 00 00
        E 0 b0 00 00
        E 1152 b0 00 7f
        E 0 b1 1b 30
        E 5760 b0 00 00
        E 0 b0 00 00
        E 1152 b0 00 7f
        E 0 b1 1b 38
        E 5760 b0 00 00
        E 0 b0 00 00
        E 1152 b0 00 7f
        E 0 b1 1b 40
        E 5760 b0 00 00
        E 0 b0 00 00
        E 1152 b0 00 7f
        E 0 b1 1b 48
        E 5760 b0 00 00
        E 0 b0 00 00
        E 1152 b0 00 7f
        E 0 b1 1b 50
        E 5760 b0 00 00
        E 0 b0 00 00
        E 1152 b0 00 7f
        E 0 b1 1b 58
        E 5760 b0 00 00
        E 0 b0 00 00
        E 1152 b0 00 7f
        E 0 b1 1b 60
        E 5760 b0 00 00
        E 0 b0 00 00
        E 1152 b0 00 7f
        E 0 b1 1b 68
        E 5760 b0 00 00
        E 0 b0 00 00
        E 1152 b0 00 7f
        E 0 b1 1b 70
        E 5760 b0 00 00
        E 0 b0 00 00
        E 1152 b0 00 7f
        E 0 b1 1b 78
        E 5760 b0 00 00
        E 0 b0 00 00
        E 1152 b0 00 7f
        E 0 b1 1b 7f
        E 5760 b0 00 00
        E 0 b0 00 00
        E 1152 b0 00 00
        E 0 b1 1b 1e
        E 1152 b0 00 7f
        E 0 b1 14 23
        E 0 b1 15 47
        E 5760 b0 00 00
        E 1152 b0 00 00
        E 0 b1 14 2a
        E 0 b1 15 00
        E 1152 b0 00 7f
        E 0 b1 14 5d
        E 0 b1 16 7f
        E 5760 b0 00 00
        E 1152 b0 00 00
        E 0 b1 14 2a
        E 0 b1 16 00
        E 1152 b0 00 7f
        E 0 b1 14 34
        E 0 b1 17 52
        E 5760 b0 00 00
        E 1152 b0 00 00
        E 0 b1 14 2a
        E 0 b1 17 00
        E 1152 b0 00 7f
        E 0 b1 14 31
        E 0 b1 18 0e
        E 5760 b0 00 00
        E 1152 b0 00 00
        E 0 b1 14 2a
        E 0 b1 18 00
        E 1152 b0 00 7f
        E 0 b1 14 44
        E 0 b1 19 37
        E 5760 b0 00 00
        E 1152 b0 00 00
        E 0 b1 14 2a
        E 0 b1 19 40
        E 1152 b1 14 25
        E 0 b1 1a 7c
        E 1 b0 00 7f
        E 5760 b0 00 00
        E 1152 b0 00 00
        E 0 b1 14 2a
        E 0 b1 1a 00
        E 1152 b0 00 7f
        E 0 b1 14 31
        E 0 b1 1b 00
        E 5760 b0 00 00
        E 1152 b0 00 00
        E 0 b1 14 2a
        E 0 b1 1b 1e
        E 1152 b0 00 7f
        E 0 b1 15 4a
        E 0 b1 16 2f
        E 5760 b0 00 00
        E 1152 b0 00 00
        E 0 b1 15 00
        E 0 b1 16 00
        E 1152 b0 00 7f
        E 0 b1 15 3b
        E 0 b1 17 1c
        E 5760 b0 00 00
        E 1152 b0 00 00
        E 0 b1 15 00
        E 0 b1 17 00
        E 1152 b0 00 7f
        E 0 b1 15 44
        E 0 b1 18 6e
        E 5760 b0 00 00
        E 1152 b0 00 00
        E 0 b1 15 00
        E 0 b1 18 00
        E 1152 b0 00 7f
        E 0 b1 15 17
        E 0 b1 19 27
        E 5760 b0 00 00
        E 1152 b0 00 00
        E 0 b1 15 00
        E 0 b1 19 40
        E 1152 b0 00 7f
        E 0 b1 15 5c
        E 0 b1 1a 58
        E 5760 b0 00 00
        E 1152 b0 00 00
        E 0 b1 15 00
        E 0 b1 1a 00
        E 1152 b0 00 7f
        E 0 b1 15 7b
        E 0 b1 1b 1f
        E 5760 b0 00 00
        E 1152 b0 00 00
        E 0 b1 15 00
        E 0 b1 1b 1e
        E 1152 b0 00 7f
        E 0 b1 16 1a
        E 0 b1 17 1c
        E 5760 b0 00 00
        E 1152 b0 00 00
        E 0 b1 16 00
        E 0 b1 17 00
        E 1152 b0 00 7f
        E 0 b1 16 1b
        E 0 b1 18 45
        E 5760 b0 00 00
        E 1152 b0 00 00
        E 0 b1 16 00
        E 0 b1 18 00
        E 1152 b0 00 7f
        E 0 b1 16 79
        E 0 b1 19 29
        E 5760 b0 00 00
        E 1152 b0 00 00
        E 0 b1 16 00
        E 0 b1 19 40
        E 1152 b0 00 7f
        E 0 b1 16 46
        E 0 b1 1a 3e
        E 5760 b0 00 00
        E 1152 b0 00 00
        E 0 b1 16 00
        E 0 b1 1a 00
        E 1152 b0 00 7f
        E 0 b1 16 18
        E 0 b1 1b 6e
        E 5760 b0 00 00
        E 1152 b0 00 00
        E 0 b1 16 00
        E 0 b1 1b 1e
        E 1152 b0 00 7f
        E 0 b1 17 7c
        E 0 b1 18 67
        E 5760 b0 00 00
        E 1152 b0 00 00
        E 0 b1 17 00
        E 0 b1 18 00
        E 1152 b0 00 7f
        E 0 b1 17 25
        E 0 b1 19 37
        E 5760 b0 00 00
        E 1152 b0 00 00
        E 0 b1 17 00
        E 0 b1 19 40
        E 1152 b0 00 7f
        E 0 b1 17 51
        E 0 b1 1a 5e
        E 5760 b0 00 00
        E 1152 b0 00 00
        E 0 b1 17 00
        E 0 b1 1a 00
        E 1152 b0 00 7f
        E 0 b1 17 06
        E 0 b1 1b 3a
        E 5760 b0 00 00
        E 1152 b0 00 00
        E 0 b1 17 00
        E 0 b1 1b 1e
        E 1152 b0 00 7f
        E 0 b1 18 39
        E 0 b1 19 05
        E 5760 b0 00 00
        E 1152 b0 00 00
        E 0 b1 18 00
        E 0 b1 19 40
        E 1152 b0 00 7f
        E 0 b1 18 7c
        E 0 b1 1a 3d
        E 5760 b0 00 00
        E 1152 b0 00 00
        E 0 b1 18 00
        E 0 b1 1a 00
        E 1152 b0 00 7f
        E 0 b1 18 7b
        E 0 b1 1b 79
        E 5760 b0 00 00
        E 1152 b0 00 00
        E 0 b1 18 00
        E 0 b1 1b 1e
        E 1152 b0 00 7f
        E 0 b1 19 3c
        E 0 b1 1a 14
        E 5760 b0 00 00
        E 1152 b0 00 00
        E 0 b1 19 40
        E 0 b1 1a 00
        E 1152 b0 00 7f
        E 0 b1 19 44
        E 0 b1 1b 4b
        E 5760 b0 00 00
        E 1152 b0 00 00
        E 0 b1 19 40
        E 0 b1 1b 1e
        E 1152 b0 00 7f
        E 0 b1 1a 71
        E 0 b1 1b 13
        E 5760 b0 00 00
        E 1152 b1 1a 00
        E 0 b1 1b 1e
        E 7981 b0 7b 00
        CCINTERP 32
        CHASE_CC_TAKEOFFS 1
        GUID {82226D8A-F315-4716-A922-7E170CC13FCA}
        IGNTEMPO 0 120 4 4
        SRCCOLOR 7947
        EVTFILTER 0 -1 -1 -1 -1 0 0 0 0 -1 -1 -1 -1 0 -1 0 -1 -1
      >
    >
  >
  <EXTENSIONS
  >
>
